# xmcd
#
# Track frame offsets: 
#        150
#        12232
#        28395
#        43005
#        61812
#        72237
#        91812
#        104067
#        116935
#        132437
#        149142
#        165655
#        182865
#
# Disc length: 2618 seconds
#
# Revision: 1
# Processed by: cddbd v1.4PL0 Copyright (c) Steve Scherf et al.
# Submitted via: ExactAudioCopy v0.90b3
#
DISCID=c70a380d
DTITLE=Deryl Dodd - Pearl Snaps
DYEAR=2001
DGENRE=Country
TTITLE0=Pearl Snaps
TTITLE1=She'll Have You Back
TTITLE2=That's How I Got To Memphis
TTITLE3=One Ride In Vegas
TTITLE4=Honky Tonk Champagne
TTITLE5=Good Things Happen
TTITLE6=On Earth As It Is In Texas
TTITLE7=Cows
TTITLE8=What Some Call A Weakness
TTITLE9=Back To The Honky Tonks
TTITLE10=A Bitter End
TTITLE11=Sundown
TTITLE12=Where The River Flows 
EXTD=
EXTT0=
EXTT1=
EXTT2=
EXTT3=
EXTT4=
EXTT5=
EXTT6=
EXTT7=
EXTT8=
EXTT9=
EXTT10=
EXTT11=
EXTT12=
PLAYORDER=
